<svg xmlns="http://www.w3.org/2000/svg" xmlns:xlink="http://www.w3.org/1999/xlink" width="1080" zoomAndPan="magnify" viewBox="0 0 810 359.999987" height="480" preserveAspectRatio="xMidYMid meet" version="1.0"><defs><filter x="0%" y="0%" width="100%" height="100%" id="027e261f7c"><feColorMatrix values="0 0 0 0 1 0 0 0 0 1 0 0 0 0 1 0 0 0 1 0" color-interpolation-filters="sRGB"/></filter><mask id="c73c91236a"><g filter="url(#027e261f7c)"><rect x="-81" width="972" fill="#000000" y="-35.999999" height="431.999984" fill-opacity="0.09"/></g></mask><clipPath id="5f68c0828c"><path d="M 723 0 L 809.90625 0 L 809.90625 31 L 723 31 Z M 723 0 " clip-rule="nonzero"/></clipPath><clipPath id="d3826aea07"><path d="M 565 0 L 809.90625 0 L 809.90625 90 L 565 90 Z M 565 0 " clip-rule="nonzero"/></clipPath><clipPath id="6dfe579024"><path d="M 488 0 L 809.90625 0 L 809.90625 150 L 488 150 Z M 488 0 " clip-rule="nonzero"/></clipPath><clipPath id="b6e6c30eb2"><path d="M 428 0 L 809.90625 0 L 809.90625 306 L 428 306 Z M 428 0 " clip-rule="nonzero"/></clipPath><clipPath id="0954d8b71c"><path d="M 369 0 L 809.90625 0 L 809.90625 360 L 369 360 Z M 369 0 " clip-rule="nonzero"/></clipPath><clipPath id="7714cd4a4b"><path d="M 212 0 L 809.90625 0 L 809.90625 360 L 212 360 Z M 212 0 " clip-rule="nonzero"/></clipPath><clipPath id="d73a9bc9ce"><path d="M 137 0 L 809.90625 0 L 809.90625 360 L 137 360 Z M 137 0 " clip-rule="nonzero"/></clipPath><clipPath id="46a98deded"><path d="M 77 0 L 809.90625 0 L 809.90625 360 L 77 360 Z M 77 0 " clip-rule="nonzero"/></clipPath><clipPath id="ba9ead2fa9"><path d="M 17 0 L 776 0 L 776 360 L 17 360 Z M 17 0 " clip-rule="nonzero"/></clipPath><clipPath id="49b18ee946"><path d="M 0 0 L 717 0 L 717 360 L 0 360 Z M 0 0 " clip-rule="nonzero"/></clipPath><clipPath id="cba4829ecb"><path d="M 0 98 L 657 98 L 657 360 L 0 360 Z M 0 98 " clip-rule="nonzero"/></clipPath><clipPath id="36dd9fd4f2"><path d="M 0 156 L 576 156 L 576 360 L 0 360 Z M 0 156 " clip-rule="nonzero"/></clipPath><clipPath id="10e40d2623"><path d="M 0 214 L 424 214 L 424 360 L 0 360 Z M 0 214 " clip-rule="nonzero"/></clipPath><clipPath id="4a4bcbb938"><path d="M 0 294 L 364 294 L 364 360 L 0 360 Z M 0 294 " clip-rule="nonzero"/></clipPath><clipPath id="f0fa6bac17"><rect x="0" width="810" y="0" height="360"/></clipPath></defs><g mask="url(#c73c91236a)"><g><g clip-path="url(#f0fa6bac17)"><g clip-path="url(#5f68c0828c)"><path fill="#000000" d="M 726.84375 -114.3125 L 723.339844 -114.3125 L 769.90625 15.679688 L 809.90625 30.027344 L 809.90625 26.503906 L 772.484375 13.097656 Z M 726.84375 -114.3125 " fill-opacity="1" fill-rule="nonzero"/></g><g clip-path="url(#d3826aea07)"><path fill="#000000" d="M 681.171875 -75.550781 L 574.71875 -114.3125 L 565.050781 -114.3125 L 678.578125 -72.988281 L 726.050781 59.53125 L 809.90625 89.601562 L 809.90625 86.078125 L 728.628906 56.953125 Z M 681.171875 -75.550781 " fill-opacity="1" fill-rule="nonzero"/></g><g clip-path="url(#6dfe579024)"><path fill="#000000" d="M 637.316406 -31.714844 L 503.589844 -80.394531 L 491.605469 -114.3125 L 488.101562 -114.3125 L 500.996094 -77.816406 L 634.722656 -29.136719 L 682.195312 103.386719 L 809.90625 149.15625 L 809.90625 145.652344 L 684.792969 100.789062 Z M 637.316406 -31.714844 " fill-opacity="1" fill-rule="nonzero"/></g><g clip-path="url(#b6e6c30eb2)"><path fill="#000000" d="M 773.507812 192.167969 L 640.9375 144.644531 L 593.464844 12.140625 L 459.734375 -36.539062 L 432.246094 -114.3125 L 428.742188 -114.3125 L 457.140625 -33.976562 L 590.886719 14.71875 L 638.34375 147.222656 L 770.914062 194.746094 L 809.90625 305.070312 L 809.90625 295.152344 L 773.757812 192.914062 Z M 773.507812 192.167969 " fill-opacity="1" fill-rule="nonzero"/></g><g clip-path="url(#0954d8b71c)"><path fill="#000000" d="M 729.65625 236.023438 L 597.085938 188.5 L 549.625 55.996094 L 415.898438 7.3125 L 372.902344 -114.3125 L 369.382812 -114.3125 L 413.304688 9.875 L 547.03125 58.574219 L 594.503906 191.078125 L 727.058594 238.601562 L 773.558594 370.148438 L 809.90625 383.007812 L 809.90625 379.503906 L 776.152344 367.566406 Z M 729.65625 236.023438 " fill-opacity="1" fill-rule="nonzero"/></g><g clip-path="url(#7714cd4a4b)"><path fill="#000000" d="M 685.800781 279.859375 L 553.230469 232.351562 L 505.773438 99.847656 L 372.042969 51.152344 L 325.527344 -80.425781 L 223.140625 -114.3125 L 212.628906 -114.3125 L 322.949219 -77.800781 L 369.449219 53.730469 L 503.175781 102.425781 L 550.652344 234.933594 L 683.207031 282.457031 L 729.722656 414 L 809.90625 442.351562 L 809.90625 438.847656 L 732.300781 411.421875 Z M 685.800781 279.859375 " fill-opacity="1" fill-rule="nonzero"/></g><g clip-path="url(#d73a9bc9ce)"><path fill="#000000" d="M 642.210938 324.457031 L 641.945312 323.714844 L 509.375 276.191406 L 461.917969 143.6875 L 328.191406 95.003906 L 281.675781 -36.574219 L 154.527344 -78.660156 L 141.171875 -114.3125 L 137.648438 -114.3125 L 151.996094 -76.015625 L 279.097656 -33.945312 L 325.59375 97.582031 L 459.339844 146.265625 L 506.796875 278.785156 L 639.351562 326.292969 L 685.867188 457.855469 L 809.90625 501.710938 L 809.90625 498.203125 L 688.460938 455.261719 Z M 642.210938 324.457031 " fill-opacity="1" fill-rule="nonzero"/></g><g clip-path="url(#46a98deded)"><path fill="#000000" d="M 644.609375 499.113281 L 598.09375 367.566406 L 465.539062 320.042969 L 418.0625 187.539062 L 284.335938 138.859375 L 237.820312 7.28125 L 110.6875 -34.804688 L 80.902344 -114.3125 L 77.363281 -114.3125 L 108.144531 -32.160156 L 235.242188 9.910156 L 281.742188 141.4375 L 415.484375 190.117188 L 462.941406 322.640625 L 595.515625 370.148438 L 642.011719 501.710938 L 773.558594 548.207031 L 809.90625 651.007812 L 809.90625 641.089844 L 776.152344 545.628906 Z M 644.609375 499.113281 " fill-opacity="1" fill-rule="nonzero"/></g><g clip-path="url(#ba9ead2fa9)"><path fill="#000000" d="M 600.753906 542.96875 L 554.253906 411.421875 L 421.683594 363.898438 L 374.226562 231.394531 L 240.5 182.714844 L 193.984375 51.132812 L 66.835938 9.050781 L 20.632812 -114.3125 L 17.097656 -114.3125 L 64.289062 11.675781 L 191.40625 53.761719 L 237.902344 185.277344 L 371.632812 233.972656 L 419.089844 366.476562 L 551.660156 414 L 598.160156 545.546875 L 729.722656 592.0625 L 772.1875 712.1875 L 775.691406 712.1875 L 732.300781 589.46875 Z M 600.753906 542.96875 " fill-opacity="1" fill-rule="nonzero"/></g><g clip-path="url(#49b18ee946)"><path fill="#000000" d="M 556.898438 586.820312 L 510.664062 456.003906 L 510.402344 455.261719 L 377.832031 407.753906 L 330.371094 275.25 L 196.644531 226.550781 L 150.128906 94.972656 L 22.980469 52.886719 L -16.59375 -52.757812 L -16.59375 -43.335938 L 20.433594 55.53125 L 147.550781 97.601562 L 194.050781 229.128906 L 327.777344 277.808594 L 374.988281 409.605469 L 375.25 410.332031 L 507.804688 457.855469 L 554.320312 589.402344 L 685.867188 635.917969 L 712.828125 712.1875 L 716.332031 712.1875 L 688.460938 633.320312 Z M 556.898438 586.820312 " fill-opacity="1" fill-rule="nonzero"/></g><g clip-path="url(#cba4829ecb)"><path fill="#000000" d="M 513.0625 630.660156 L 466.546875 499.113281 L 333.976562 451.589844 L 286.519531 319.085938 L 152.789062 270.40625 L 106.277344 138.828125 L -16.59375 98.164062 L -16.59375 101.632812 L 103.695312 141.453125 L 150.195312 272.984375 L 283.921875 321.664062 L 331.398438 454.1875 L 463.953125 501.710938 L 510.46875 633.253906 L 642.011719 679.753906 L 653.484375 712.1875 L 656.988281 712.1875 L 644.609375 677.175781 Z M 513.0625 630.660156 " fill-opacity="1" fill-rule="nonzero"/></g><g clip-path="url(#36dd9fd4f2)"><path fill="#000000" d="M 422.691406 542.96875 L 290.136719 495.445312 L 242.664062 362.941406 L 108.9375 314.257812 L 62.421875 182.679688 L -16.59375 156.511719 L -16.59375 160 L 59.84375 185.308594 L 106.339844 316.835938 L 240.085938 365.519531 L 287.542969 498.039062 L 420.097656 545.546875 L 466.613281 677.109375 L 565.84375 712.1875 L 575.761719 712.1875 L 469.207031 674.515625 Z M 422.691406 542.96875 " fill-opacity="1" fill-rule="nonzero"/></g><g clip-path="url(#10e40d2623)"><path fill="#000000" d="M 246.285156 539.296875 L 198.808594 406.792969 L 65.082031 358.113281 L 18.566406 226.535156 L -16.59375 214.898438 L -16.59375 218.367188 L 15.988281 229.164062 L 62.488281 360.675781 L 196.230469 409.371094 L 243.441406 541.148438 L 243.707031 541.878906 L 376.261719 589.402344 L 419.667969 712.1875 L 423.171875 712.1875 L 378.855469 586.820312 Z M 246.285156 539.296875 " fill-opacity="1" fill-rule="nonzero"/></g><g clip-path="url(#4a4bcbb938)"><path fill="#000000" d="M 202.429688 583.152344 L 154.972656 450.648438 L 21.246094 401.949219 L -16.59375 294.953125 L -16.59375 304.871094 L 18.648438 404.53125 L 152.378906 453.226562 L 199.851562 585.730469 L 332.40625 633.253906 L 360.308594 712.1875 L 363.8125 712.1875 L 335 630.675781 Z M 202.429688 583.152344 " fill-opacity="1" fill-rule="nonzero"/></g></g></g></g></svg>